<?xml version="1.0" encoding="UTF-8"?>
<svg id="Capa_1" xmlns="http://www.w3.org/2000/svg" version="1.1" viewBox="0 0 48.5 84">
  <!-- Generator: Adobe Illustrator 30.6.0, SVG Export Plug-In . SVG Version: 2.1.4 Build 109)  -->
  <path d="M43.8,38s0,0,0,0v22.2c0,0,0,.1,0,.1.7.3,1.3.9,1.6,1.7,0,.6.1,1.2,0,1.8,0,3.3,0,5.6,0,6.8,0,1,0,2-.2,2.9-.6,3.5-2.8,6.4-6,7.9-.7.3-1.4.6-2.1.8-2.1.6-4.2,1.1-6.4,1.3-4.6.5-9.2.5-13.7,0-2.1-.3-4.2-.7-6.2-1.3-1.3-.4-2.6-1-3.8-1.8-2.3-1.7-3.8-4.3-4.1-7.1,0-.7-.1-1.4,0-2,0-.3,0-2.9,0-7.9h0c0-.5,0-1,.1-1.5.3-.7.9-1.2,1.6-1.5,0,0,0,0,0,0v-22.2c0,0,0-.1-.1,0-.5.2-.9.3-1.4.3-1.4.2-2.7-.7-3.1-2.1-.2-1,0-2,.6-2.8,1.1-1.2,2.4-2,3.9-2.4,0,0,0,0,0,0,0-1.3,0-2.8,0-4.5h0c0-.3,0-.5,0-.8,0,0,0,0,0,0-1.1-.4-1.7-1.4-1.7-2.6,0-3.6,0-6.6,0-8.9,0-.9,0-1.9.2-2.8.6-3.2,2.4-6.1,5.1-7.9,1.6-1,3.4-1.8,5.3-2.2C17.9.2,22.3-.2,26.6,0c3.2.1,6.3.6,9.4,1.5,2.2.6,4.2,1.7,5.8,3.2,1.6,1.5,2.7,3.5,3.3,5.6.3,1.4.5,2.9.4,4.3v8.7c0,1-.7,1.9-1.6,2.3,0,0,0,0,0,.1v5.2c0,0,0,.1,0,.1,1.7.4,3.2,1.4,4.2,2.9.5.8.6,1.9.2,2.7-.4.9-1.3,1.5-2.2,1.6-.5,0-.9,0-1.4-.1-.3,0-.6-.2-.7-.2h0ZM5.4,23.3c.5,0,.9.3,1.2.7.4.5.6,1.1.6,1.8,0,.1,0,1.6,0,4.4h0s0,0,0,0c.2,0,.3,0,.3-.1h0c1.2-2.2,3.2-4,5.6-4.9.8-.3,1.6-.6,2.5-.8,1.8-.5,3.6-.7,5.5-.9,4-.3,8,0,11.9.9,3.3.8,6.5,2.6,7.9,5.7h0s0,0,.1,0h.3c0,0,0,0,0,0,0,0,0,0,0,0,0-1.9,0-3.2,0-4,0-.6,0-1.1.1-1.7.3-.6.8-1.1,1.5-1.3,0,0,0,0,0,0v-10.5s0,0,0,0c-2.2,1.2-4.7.1-6.4-1.3-2.4-2-3.9-4.9-4-8,0,0,0,0,0,0-.9-.2-1.8-.3-2.5-.4h0c-3.9-.5-7.8-.4-11.8,0-.8.1-1.6.2-2.4.4,0,0,0,0,0,.1-.1,2.7-1.2,5.2-3,7.1-1.7,1.9-4.7,3.6-7.3,2.3h0s0,0,0,0c0,0,0,0,0,0v10.5s0,0,0,0h0ZM41.6,10.9h0s0,0,0,0l.8-.6s0,0,0,0c-.5-1.5-1.3-2.9-2.5-3.9-.5-.4-1-.8-1.5-1.2-1-.6-2.2-1.1-3.4-1.3,0,0,0,0,0,0v.8c.1,0,.1,0,.1,0,0,0,0,0,0,0,1.5.4,2.9,1.1,4,2.2,1.1,1.1,2,2.5,2.4,3.9h0ZM13.3,3.9h0c-2,.5-3.8,1.5-5.2,2.9-.9.9-1.6,2.1-2,3.4,0,.1,0,.2.1.3l.6.4c0,0,.2,0,.2,0,.9-2.9,3.3-5.2,6.2-6,0,0,0,0,0,0v-.8c.1,0,.1,0,.1,0h0ZM37.4,9.1h0c.8.8,1.7,1.4,2.7,1.8,0,0,0,0,0,0,0,0,0,0,0,0-.4-1-1-1.9-1.7-2.7-.8-.8-1.7-1.4-2.7-1.8,0,0,0,0,0,0,0,0,0,0,0,0,.4,1,1,1.9,1.7,2.7h0ZM10,8.2h0c-.7.8-1.3,1.7-1.7,2.6,0,0,0,0,0,.1,0,0,0,0,.1,0,1.9-.9,3.5-2.5,4.2-4.4,0,0,0-.1,0-.1,0,0,0,0-.1,0h0c-1,.4-1.8,1-2.5,1.8h0ZM11.6,40.8h0c4.4-1.3,9-1.9,13.5-1.8,2.3,0,4.6.3,6.9.7,1.6.3,3.2.7,4.8,1.1,0,0,0,0,0,0s0,0,0,0c.7-3.3,1.3-6.3,1.8-9.5,0,0,0-.1,0-.1-.3-.5-.7-1-1.1-1.4-1.5-1.5-3.4-2.4-5.5-2.8-2.8-.6-5.7-.9-8.6-.9-3,0-6.1.5-8.9,1.4-2,.7-3.6,2-4.7,3.7,0,0,0,0,0,0,0,.7.2,1.1.2,1.3.4,2.2.9,5,1.5,8.3h0s0,0,0,0h0ZM7.4,32.4h0s0,0,0,0c-1.2.3-5,1.5-5.1,3-.1,1.1,1.1.8,1.7.7,1.3-.3,2.5-.8,3.8-1.3,0,0,0,0,0-.1l-.4-2.2ZM41.1,32.5l-.4,2.2h0s0,0,0,0c1.2.4,2.4.8,3.5,1.1.4.1.8.2,1.1.2.5,0,1.1-.2.9-.8-.3-.9-1.8-1.7-2.7-2.1-.8-.3-1.6-.6-2.4-.8,0,0,0,0,0,0h0ZM8,36.9l-.8.3h0s0,0,0,0c0,6.7,0,14.4,0,23.2,0,.3,0,.6,0,.9-.3.7-.9,1.2-1.6,1.4,0,0,0,0,0,0,0,2.9,0,6.1,0,9.6h0c0,.4,0,.7.1,1.1,0,0,0,0,0,.1,1.1.4,2.1,1,2.9,1.8,1.4,1.3,2.5,2.7,3.4,4.4,0,0,.1.1.2.1.5.2,1.1.3,1.8.5h0c4.1.9,8.4,1.2,12.6,1,3-.1,6-.5,8.9-1.2.2,0,.4-.1.8-.3h0s0,0,0,0c.9-1.7,2.1-3.1,3.6-4.4.9-.8,1.9-1.4,3-1.8,0,0,0,0,0,0,.1-.4.2-.9.2-1.3,0-4.9,0-7.7,0-8.6,0-.3,0-.6,0-.9,0,0,0,0,0,0-.9-.3-1.6-1.1-1.6-2,0-3.7,0-11.5,0-23.4,0,0,0-.1-.1-.1l-.8-.3c0,0-.1,0-.1,0-.3,1.8-.8,4.1-1.4,7,0,.4-.1.9-.1,1.3.2,12.7.4,20.5.5,23.5,0,.3,0,.6,0,.9-.2.5-.6.7-1.1.7-.4,0-.7-.2-.9-.6-.1-.4-.2-.7-.2-1.1-.1-3.1-.1-6.3-.2-9.2,0-4.7-.2-9.2-.2-13.5h0c0-.4,0-.8,0-1.2,0-.5,0-.9.1-1.2,0,0,0,0,0-.1-1.1-.3-2.2-.6-3.3-.9-6.4-1.5-13.1-1.4-19.5.2-.8.2-1.6.4-2.2.6h0s0,0,0,.1c0,.7.1,1.4.1,2.1,0,.7-.1,3.3-.2,7.8,0,2.9-.2,7.7-.3,11.6,0,1.6,0,2.9-.1,3.9,0,.5-.1,1-.6,1.2-.3.2-.7.1-1,0-.4-.2-.6-.6-.6-1.1,0-.5,0-2,.1-4.5,0-.4.2-6.9.6-19.5,0-.2,0-.4,0-.6-.2-1.3-.4-2.1-.4-2.5-.2-1.2-.6-2.9-1-5.1,0,0,0,0,0,0,0,0,0,0,0,0h0ZM7.6,77.6h0c.6.6,1.4,1.2,2.2,1.6,0,0,0,0,0,0s0,0,0,0c0,0,0,0,0,0-1-1.5-2.3-2.8-3.9-3.8,0,0,0,0,0,0,0,0,0,0,0,0,0,0,0,0,0,0,.4.8.9,1.6,1.6,2.2h0ZM40.6,77.6h0c.6-.6,1.2-1.4,1.6-2.2,0,0,0,0,0,0,0,0,0,0,0,0-1.5,1-2.8,2.3-3.8,3.8,0,0,0,0,0,0s0,0,0,0c.8-.4,1.6-.9,2.2-1.5h0Z"/>
  <path d="M11.8,67.3c0-1.2,0-2.3,0-3.2,0-.4,0-.7,0-1.1.3-.7,1-1.1,1.8-.9,1.5.2,2.7.4,3.7.5,5.5.6,11.1.4,16.7-.4.6,0,.9-.1,1-.1.4,0,.8.1,1.1.4s.5.6.5,1c0,3.6-.2,7.4-.3,11.3,0,.6,0,1.1-.2,1.7-.5,1.3-1.7,1.5-3.1,1.7h0c-2.3.4-4.6.7-6.9.8-4,.2-7.9-.2-11.8-1-1-.1-1.8-.9-2.1-1.8-.1-.4-.2-.9-.2-1.3,0-1.6,0-3,0-4.3,0-1.2,0-2.3,0-3.2h0ZM24.1,76.4c3.2,0,6.4-.3,9.5-1.1,0,0,0,0,0,0l.2-10.4s0,0,0,0c0,0,0,0,0,0-6.4.9-12.9.9-19.3,0,0,0,0,0,0,0,0,0,0,0,0,0l.2,10.4h0s0,0,0,0c3.1.8,6.3,1.1,9.5,1.1h0Z"/>
</svg>