<?xml version="1.0" encoding="UTF-8"?>
<svg id="Capa_1" xmlns="http://www.w3.org/2000/svg" version="1.1" viewBox="0 0 20.5 32">
  <!-- Generator: Adobe Illustrator 30.6.0, SVG Export Plug-In . SVG Version: 2.1.4 Build 109)  -->
  <defs>
    <style>
      .st0 {
        fill: #00f1c7;
      }
    </style>
  </defs>
  <path class="st0" d="M20.5,16.3c0-3.3-1.6-6.3-4.1-8.2v-3.1c-.1-1.7-1.6-5-6.1-5s-6,3.2-6.1,4.9v3.2C1.6,10,0,13,0,16.3s.1,1.8.3,2.6c0,.1,0,.3.1.4,0,0,0,0,0,0,.9,3.4,3.6,6,7,7v5.6l8.1-6.6c3-1.8,5-5,5-8.8s0,0,0-.1,0-.1,0-.2h0ZM7.6,5.1c0-.5.4-1.8,2.7-1.8s2.7,1.4,2.7,1.9v1.3c-.9-.2-1.8-.4-2.7-.4s-1.8.1-2.7.4v-1.4h0ZM11.4,21l.2,2.5h-2.6l.2-2.5c-2.2-.5-3.7-2.4-3.7-4.7s2.1-4.8,4.8-4.8,4.8,2.1,4.8,4.8-1.6,4.2-3.7,4.7h0Z"/>
</svg>